<?xml version="1.0" standalone="no"?>
<!DOCTYPE svg PUBLIC "-//W3C//DTD SVG 20010904//EN"
 "http://www.w3.org/TR/2001/REC-SVG-20010904/DTD/svg10.dtd">
<svg xmlns="http://www.w3.org/2000/svg"
 width="300" height="300" >

<g transform="translate(0.000000,300.000000) scale(0.100000,-0.100000)"
fill="rgba(255,255,255,.87)" stroke="none">
<path d="M2283 2886 c-60 -20 -100 -47 -168 -116 l-60 -60 328 -328 328 -327
70 73 c91 95 112 142 113 252 1 128 -22 171 -183 331 -150 151 -200 180 -315
186 -42 2 -88 -3 -113 -11z"/>
<path d="M1028 1683 c-511 -512 -912 -920 -918 -936 -6 -17 -10 -128 -10 -275
0 -238 1 -249 23 -287 13 -22 40 -49 62 -62 39 -22 49 -23 288 -23 201 0 255
3 280 15 18 8 439 422 937 920 l905 905 -325 325 c-179 179 -327 325 -330 325
-3 0 -413 -408 -912 -907z"/>
</g>
</svg>
